<?xml version="1.0" standalone="no"?>
<!DOCTYPE svg PUBLIC "-//W3C//DTD SVG 1.1//EN" "http://www.w3.org/Graphics/SVG/1.1/DTD/svg11.dtd" >
<!--
2013-9-30: Created.
-->
<svg>
<metadata>
Created by iconfont
</metadata>
<defs>

<font id="font_family" horiz-adv-x="1024" >
  <font-face
    font-family="font_family"
    font-weight="500"
    font-stretch="normal"
    units-per-em="1024"
    ascent="896"
    descent="-128"
  />
    <missing-glyph />
    
    <glyph glyph-name="guanbi" unicode="&#58916;" d="M512 439.689846L94.247385 857.442462a39.542154 39.542154 0 0 1-55.689847 0 39.266462 39.266462 0 0 1 0-55.689847L456.310154 384 38.557538-33.752615a39.542154 39.542154 0 0 1 0-55.689847 39.266462 39.266462 0 0 1 55.689847 0L512 328.310154l417.752615-417.752616c15.163077-15.163077 40.290462-15.36 55.689847 0a39.266462 39.266462 0 0 1 0 55.689847L567.689846 384 985.442462 801.752615a39.542154 39.542154 0 0 1 0 55.689847 39.266462 39.266462 0 0 1-55.689847 0L512 439.689846z"  horiz-adv-x="1024" />

    
    <glyph glyph-name="Fillx" unicode="&#58885;" d="M818.604651 401.116279a290.232558 290.232558 0 0 0-170.418604-264.186046v74.418604a223.255814 223.255814 0 0 1 0 372.093023v74.418605A290.232558 290.232558 0 0 0 818.604651 401.116279z m-340.837209-357.953488V725.581395L273.116279 523.906977H68.465116v-276.093024h204.651163zM68.465116 179.348837A68.465116 68.465116 0 0 0 0 247.813953V523.906977a68.465116 68.465116 0 0 0 68.465116 68.465116h170.418605L546.232558 896v-1024L238.883721 179.348837z m580.465117-297.674418v70.697674a446.511628 446.511628 0 0 1 0 862.511628V885.581395a512 512 0 0 0 0-1003.16279z"  horiz-adv-x="1058" />

    
    <glyph glyph-name="xialaxuanxiangx" unicode="&#58886;" d="M852.219382 90.762326L1547.718451 863.808329a88.451972 88.451972 0 1 0 130.860452-118.743744l-751.235928-831.206204-16.963392-19.386733a89.663643 89.663643 0 0 0-118.743743 0l-16.963392 19.386733L25.859862 745.064585A88.451972 88.451972 0 1 0 156.720314 863.808329zM852.219382 90.762326L1547.718451 863.808329a88.451972 88.451972 0 1 0 130.860452-118.743744l-751.235928-831.206204-16.963392-19.386733a89.663643 89.663643 0 0 0-118.743743 0l-16.963392 19.386733L25.859862 745.064585A88.451972 88.451972 0 1 0 156.720314 863.808329z"  horiz-adv-x="1710" />

    
    <glyph glyph-name="shuaxinx" unicode="&#58887;" d="M511.999744-127.999488A511.999744 511.999744 0 0 0 85.503957 667.136114a32.767984 32.767984 0 0 0 54.271973-36.351981 446.975777 446.975777 0 0 1 622.591689-616.959692 32.767984 32.767984 0 1 0 36.351982-53.759973A508.927746 508.927746 0 0 0 511.999744-127.999488zM302.591849 778.752059L460.79977 704.000096A35.839982 35.839982 0 0 0 432.639784 640.000128L219.64789 738.304079A35.839982 35.839982 0 0 0 204.799898 748.032074v4.095998a32.767984 32.767984 0 0 0 7.167996 45.567977A511.999744 511.999744 0 0 0 1023.999488 384.000256a507.903746 507.903746 0 0 0-98.303951-301.567849 31.231984 31.231984 0 0 0-26.111987-13.311994 31.743984 31.743984 0 0 0-18.94399 6.143997 32.767984 32.767984 0 0 0-7.167997 45.567978A446.975777 446.975777 0 0 1 302.591849 778.752059z m275.455862-657.407672l213.503893-99.32795a35.839982 35.839982 0 0 0-30.207985-65.023967l-214.015893 99.32795a35.839982 35.839982 0 0 0 30.207985 65.023967z"  horiz-adv-x="1024" />

    
    <glyph glyph-name="Group" unicode="&#58888;" d="M512 896h837.818182a512 512 0 0 0 512-512 512 512 0 0 0-512-512H512A512 512 0 0 0 0 384 512 512 0 0 0 512 896zM1349.818182 384m-465.454546 0a465.454545 465.454545 0 1 1 930.909091 0 465.454545 465.454545 0 1 1-930.909091 0ZM1349.818182 384m-465.454546 0a465.454545 465.454545 0 1 1 930.909091 0 465.454545 465.454545 0 1 1-930.909091 0Z"  horiz-adv-x="1861" />

    
    <glyph glyph-name="quanping" unicode="&#58889;" d="M243.2 167.253333l186.88 186.88a36.266667 36.266667 0 1 0 51.2-51.2l-187.306667-186.88h154.026667a36.266667 36.266667 0 1 0 0-72.106666H237.226667A66.133333 66.133333 0 0 0 170.666667 110.08000000000004v210.773333a36.266667 36.266667 0 0 0 72.106666 0zM729.173333 651.9466669999999h-153.6a36.266667 36.266667 0 1 0 0 72.106666h210.773334A66.133333 66.133333 0 0 0 853.333333 657.493333v-210.773333a36.266667 36.266667 0 0 0-72.106666 0v153.6l-188.16-186.88a36.266667 36.266667 0 1 0-51.2 51.2zM927.573333-128H96.426667A96.426667 96.426667 0 0 0 0-31.573333000000048V799.573333A96.426667 96.426667 0 0 0 96.426667 896h831.146666A96.426667 96.426667 0 0 0 1024 799.573333v-831.146666A96.426667 96.426667 0 0 0 927.573333-128zM109.226667 810.666667a24.32 24.32 0 0 1-23.893334-23.893334v-805.546666a24.32 24.32 0 0 1 23.893334-23.893334h805.546666a24.32 24.32 0 0 1 23.893334 23.893334V786.773333a24.32 24.32 0 0 1-23.893334 23.893334z"  horiz-adv-x="1450" />

    
    <glyph glyph-name="guanbix" unicode="&#58890;" d="M512.378979 490.492968l378.978534 369.125093a75.795707 75.795707 0 0 0 105.356033-109.145818L619.250925 383.621021l369.125093-378.978534a75.795707 75.795707 0 0 0-109.145818-105.356033L512.378979 276.749075l-378.978535-369.125093A77.463212 77.463212 0 0 0 23.496669 16.7698l382.010363 366.851221-369.125093 378.978535A77.463212 77.463212 0 0 0 145.527757 872.503331z"  horiz-adv-x="1024" />

    
    <glyph glyph-name="kefux1" unicode="&#58891;" d="M645.195981-1.459683l164.55368 103.851656a92.150061 92.150061 0 0 0-41.686932 73.134969V391.275101a95.07546 95.07546 0 0 0 96.538159 92.881411h62.164724a99.463558 99.463558 0 0 0 38.030184-7.313497A454.899507 454.899507 0 0 1 512.090337 845.443259a454.899507 454.899507 0 0 1-453.436808-365.674845 99.463558 99.463558 0 0 0 38.030184 7.313496h62.164724A95.07546 95.07546 0 0 0 255.386596 391.275101v-212.09141a95.07546 95.07546 0 0 0-96.538159-92.881411h-62.164724A95.07546 95.07546 0 0 0 0.145554 179.183691V391.275101a89.956012 89.956012 0 0 0 0 10.238896A502.437237 502.437237 0 0 0 512.090337 895.906387a502.437237 502.437237 0 0 0 511.944783-492.198341 24.865889 24.865889 0 0 0 0-4.388098V179.183691a95.07546 95.07546 0 0 0-96.538159-92.881411H877.765182L658.360275-54.84821a77.523067 77.523067 0 0 0-78.985766-73.134969H474.791503a77.523067 77.523067 0 0 0-78.985766 73.134969v6.582147a77.523067 77.523067 0 0 0 78.985766 73.134969h106.045705a80.448466 80.448466 0 0 0 64.358773-26.328589z m240.614048 132.374294h40.955583a48.26908 48.26908 0 0 1 49.000429 47.53773V391.275101a48.26908 48.26908 0 0 1-49.000429 47.53773h-62.164724a48.26908 48.26908 0 0 1-49.000429-47.53773v-212.09141a48.26908 48.26908 0 0 1 40.955582-46.80638 27.059939 27.059939 0 0 0 29.253988 0zM96.683713 438.812831a48.26908 48.26908 0 0 1-49.000429-47.53773v-212.09141a48.26908 48.26908 0 0 1 49.000429-47.53773h62.164724a48.26908 48.26908 0 0 1 49.000429 47.53773V391.275101a48.26908 48.26908 0 0 1-49.000429 47.53773z m378.10779-453.436808a30.716687 30.716687 0 0 1-31.448036-30.716687V-54.84821a30.716687 30.716687 0 0 1 31.448036-30.716687h106.045705a30.716687 30.716687 0 0 1 31.448037 30.716687v6.582147a30.716687 30.716687 0 0 1-31.448037 30.716687z"  horiz-adv-x="1024" />

    
    <glyph glyph-name="zanting" unicode="&#58892;" d="M512.19136-127.99872A511.99936 511.99936 0 0 0 85.525227 667.306953a32.426626 32.426626 0 0 0 54.186599-36.266622 446.719442 446.719442 0 0 1 622.932554-617.385895 32.426626 32.426626 0 1 0 36.693288-53.759933A509.012697 509.012697 0 0 0 512.19136-127.99872z m387.412849 197.119754a31.99996 31.99996 0 0 0-19.199976 6.399992 32.426626 32.426626 0 0 0-7.253324 45.653276A447.146108 447.146108 0 0 1 248.938356 744.960189a32.426626 32.426626 0 1 0-38.399952 52.479934A511.99936 511.99936 0 0 0 1024.19072 384.00064a508.159365 508.159365 0 0 0-98.133211-301.652956 31.573294 31.573294 0 0 0-26.4533-13.22665zM408.51149 185.600888a31.99996 31.99996 0 0 0-31.99996 31.99996V550.827098a31.573294 31.573294 0 0 0 16.213313 27.733299 32.853292 32.853292 0 0 0 31.99996 0l290.986303-166.826458a31.573294 31.573294 0 0 0 0-55.039932l-290.986303-166.826458a31.146628 31.146628 0 0 0-16.213313-4.266661z m31.99996 310.186279v-223.146388L635.497873 384.00064z"  horiz-adv-x="1024" />

    
    <glyph glyph-name="zhankaix" unicode="&#58893;" d="M1706.666667-128a512 512 0 1 0 512 512 512 512 0 0 0-512-512zM341.333333 42.666667a341.333333 341.333333 0 1 0 341.333334 341.333333 341.333333 341.333333 0 0 0-341.333334-341.333333z m2730.666667 0a341.333333 341.333333 0 1 0 341.333333 341.333333 341.333333 341.333333 0 0 0-341.333333-341.333333z"  horiz-adv-x="3413" />

    
    <glyph glyph-name="dianjix" unicode="&#58895;" d="M715.208197 387.76884L226.474396 827.759243A38.994718 38.994718 0 0 0 278.467353 885.601408l513.430456-462.08741a40.294542 40.294542 0 0 0 0-70.840405L278.467353-109.413817a38.994718 38.994718 0 1 0-51.992957 54.592605zM715.208197 387.76884L226.474396 827.759243A38.994718 38.994718 0 0 0 278.467353 885.601408l513.430456-462.08741a40.294542 40.294542 0 0 0 0-70.840405L278.467353-109.413817a38.994718 38.994718 0 1 0-51.992957 54.592605z"  horiz-adv-x="1024" />

    
    <glyph glyph-name="bofang" unicode="&#58897;" d="M512.19136-127.99872A511.99936 511.99936 0 0 0 85.525227 667.306953a32.426626 32.426626 0 0 0 54.186599-36.266622 446.719442 446.719442 0 0 1 622.932554-617.385895 32.426626 32.426626 0 1 0 36.693288-53.759933A509.012697 509.012697 0 0 0 512.19136-127.99872z m387.412849 197.119754a31.99996 31.99996 0 0 0-19.199976 6.399992 32.426626 32.426626 0 0 0-7.253324 45.653276A447.146108 447.146108 0 0 1 248.938356 744.960189a32.426626 32.426626 0 1 0-38.399952 52.479934A511.99936 511.99936 0 0 0 1024.19072 384.00064a508.159365 508.159365 0 0 0-98.133211-301.652956 31.573294 31.573294 0 0 0-26.4533-13.22665zM364.991544 588.800384h12.799984a31.99996 31.99996 0 0 0 31.99996-31.99996V213.334187a31.99996 31.99996 0 0 0-31.99996-31.99996h-12.799984A31.99996 31.99996 0 0 0 332.991584 213.334187V556.800424a31.99996 31.99996 0 0 0 31.99996 31.99996z m281.599648 0h12.799984a31.99996 31.99996 0 0 0 31.99996-31.99996V213.334187a31.99996 31.99996 0 0 0-31.99996-31.99996h-12.799984a31.99996 31.99996 0 0 0-31.99996 31.99996V556.800424a31.99996 31.99996 0 0 0 31.99996 31.99996z"  horiz-adv-x="1024" />

    
    <glyph glyph-name="fanhuix" unicode="&#58898;" d="M336.969052 384.133597l466.310293-420.242317a52.722239 52.722239 0 0 0-70.637564-78.315559L229.988974 338.577487a51.18664 51.18664 0 0 0 0 90.600354L733.153648 882.179607A52.722239 52.722239 0 0 0 803.791211 803.864047zM336.969052 384.133597l466.310293-420.242317a52.722239 52.722239 0 0 0-70.637564-78.315559L229.988974 338.577487a51.18664 51.18664 0 0 0 0 90.600354L733.153648 882.179607A52.722239 52.722239 0 0 0 803.791211 803.864047z"  horiz-adv-x="1024" />

    
    <glyph glyph-name="shouyeiconx" unicode="&#58899;" d="M75.294118 493.427451A75.294118 75.294118 0 0 1 50.196078 435.701961v-438.211765a75.294118 75.294118 0 0 1 75.294118-75.294118H301.176471a75.294118 75.294118 0 0 1 75.294117 75.294118v194.258824a75.294118 75.294118 0 0 0 75.294118 75.294117h150.588235a75.294118 75.294118 0 0 0 75.294118-75.294117v-194.258824a75.294118 75.294118 0 0 1 75.294117-75.294118h175.686275a75.294118 75.294118 0 0 1 75.294118 75.294118V435.701961a75.294118 75.294118 0 0 1-25.09804 57.72549l-401.568627 334.807843a75.294118 75.294118 0 0 1-96.376471 0z m-30.117647 38.65098l401.568627 334.807844a125.490196 125.490196 0 0 0 160.627451 0l401.568627-334.807844a125.490196 125.490196 0 0 0 45.176471-96.37647v-438.211765a125.490196 125.490196 0 0 0-125.490196-125.490196H752.941176a125.490196 125.490196 0 0 0-125.490196 125.490196v194.258824a25.098039 25.098039 0 0 1-25.098039 25.098039H451.764706a25.098039 25.098039 0 0 1-25.098039-25.098039v-194.258824A125.490196 125.490196 0 0 0 301.176471-128H125.490196A125.490196 125.490196 0 0 0 0-2.509804000000031V435.701961a125.490196 125.490196 0 0 0 45.176471 96.37647zM266.039216 439.215686a25.098039 25.098039 0 1 0-21.584314 45.176471 644.015686 644.015686 0 0 0 277.584314 65.254902 711.780392 711.780392 0 0 0 287.121568-66.258824 25.198431 25.198431 0 0 0-20.078431-46.180392A662.086275 662.086275 0 0 1 522.039216 499.45098a593.819608 593.819608 0 0 1-256-60.235294z"  horiz-adv-x="1054" />

    
    <glyph glyph-name="qianjin" unicode="&#58909;" d="M716.8 394.24L256 803.84C245.76 814.08 235.52 844.8 256 855.04 266.24 865.28 296.96 875.52 307.2 855.04l481.28-440.32s10.24 0 10.24-10.24c10.24-10.24 10.24-20.48 10.24-20.48 0-10.24 0-20.48-10.24-20.48l-10.24-10.24L296.96-76.8c-10.24-10.24-40.96-10.24-51.2 0S235.52-35.84 256-25.6L716.8 394.24zM716.8 394.24L256 814.08C245.76 824.32 235.52 855.04 256 865.28 266.24 875.52 296.96 885.76 307.2 865.28l481.28-440.32s10.24 0 10.24-10.24c10.24 0 10.24-10.24 10.24-20.48s0-20.48-10.24-20.48l-10.24-10.24L307.2-76.8c-20.48-10.24-40.96-10.24-61.44 0S235.52-35.84 245.76-25.6L716.8 394.24z"  horiz-adv-x="1024" />

    
    <glyph glyph-name="wodeziliao" unicode="&#58911;" d="M982.109091 20.945455c0-79.127273-65.163636-148.945455-139.636364-148.945455H274.618182c-79.127273 0-139.636364 65.163636-139.636364 148.945455V607.418182c0 79.127273 65.163636 148.945455 139.636364 148.945454h567.854545c79.127273 0 139.636364-65.163636 139.636364-148.945454v-586.472727zM893.672727 118.690909c0-83.781818-65.163636-153.6-148.945454-153.6H148.945455C65.163636-34.909091 0 34.909091 0 118.690909V742.4C0 826.181818 65.163636 896 148.945455 896H744.727273c83.781818 0 148.945455-69.818182 148.945454-153.6v-623.709091zM162.909091 849.454545C97.745455 849.454545 46.545455 798.254545 46.545455 733.090909v-605.090909C46.545455 62.836364 97.745455 11.636364 162.909091 11.636364h572.509091c65.163636 0 116.363636 51.2 116.363636 116.363636v605.090909c0 65.163636-51.2 116.363636-116.363636 116.363636H162.909091z m-4.654546-93.090909h488.727273c13.963636 0 23.272727-9.309091 23.272727-23.272727s-9.309091-23.272727-23.272727-23.272727H158.254545c-13.963636 0-23.272727 9.309091-23.272727 23.272727s9.309091 23.272727 23.272727 23.272727z m0-232.727272H512c13.963636 0 23.272727-9.309091 23.272727-23.272728s-9.309091-23.272727-23.272727-23.272727H158.254545c-13.963636 0-23.272727 9.309091-23.272727 23.272727s9.309091 23.272727 23.272727 23.272728z m0-232.727273h223.418182c13.963636 0 23.272727-9.309091 23.272728-23.272727s-13.963636-23.272727-27.927273-23.272728H158.254545c-13.963636 0-23.272727 9.309091-23.272727 23.272728s9.309091 23.272727 23.272727 23.272727z"  horiz-adv-x="1024" />

    
    <glyph glyph-name="kefu" unicode="&#58912;" d="M170.666667 408.380952h48.761904c39.009524 0 73.142857-34.133333 73.142858-73.142857v-195.047619c0-39.009524-34.133333-73.142857-73.142858-73.142857h-48.761904c-39.009524 0-73.142857 34.133333-73.142857 73.142857v195.047619c0 39.009524 34.133333 73.142857 73.142857 73.142857zM902.095238 408.380952h48.761905c39.009524 0 73.142857-34.133333 73.142857-73.142857v-195.047619c0-39.009524-34.133333-73.142857-73.142857-73.142857h-48.761905c-39.009524 0-73.142857 34.133333-73.142857 73.142857v195.047619c0 39.009524 34.133333 73.142857 73.142857 73.142857zM546.133333-6.095238h97.52381c34.133333 0 58.514286-29.257143 58.514286-58.514286 0-34.133333-29.257143-58.514286-58.514286-58.514286h-97.52381c-34.133333 0-58.514286 29.257143-58.514285 58.514286s29.257143 58.514286 58.514285 58.514286zM614.4 42.666667l156.038095 97.523809c-24.380952 14.628571-39.009524 43.885714-39.009524 73.142857V413.257143c0 48.761905 39.009524 87.771429 92.647619 87.771428h58.514286c14.628571 0 24.380952-4.87619 34.133334-4.87619C882.590476 696.07619 702.171429 847.238095 487.619048 847.238095S92.647619 696.07619 53.638095 496.152381c14.628571 4.87619 24.380952 9.752381 39.009524 9.752381h58.514286c48.761905 0 92.647619-43.885714 92.647619-92.647619V213.333333c0-48.761905-39.009524-87.771429-92.647619-87.771428H92.647619C43.885714 125.561905 0 164.571429 0 213.333333V413.257143v9.752381C0 686.32381 219.428571 896 487.619048 896s487.619048-209.67619 487.619047-468.114286V213.333333c0-48.761905-39.009524-87.771429-92.647619-87.771428h-43.885714l-209.676191-131.657143c0-39.009524-34.133333-73.142857-73.142857-73.142857H453.485714c-39.009524 0-73.142857 34.133333-73.142857 73.142857v4.87619c0 39.009524 34.133333 73.142857 73.142857 73.142858h102.4c24.380952 0 43.885714-9.752381 58.514286-29.257143z m229.180952 126.780952h39.009524c24.380952 0 48.761905 19.504762 48.761905 43.885714V413.257143c0 24.380952-19.504762 43.885714-48.761905 43.885714h-58.514286c-24.380952 0-48.761905-19.504762-48.761904-43.885714V213.333333c0-24.380952 14.628571-39.009524 39.009524-43.885714 4.87619 4.87619 9.752381 4.87619 14.628571 4.876191 4.87619 0 9.752381-4.87619 14.628571-4.876191z m-750.933333 292.571429c-24.380952 0-48.761905-19.504762-48.761905-43.885715V213.333333c0-24.380952 19.504762-43.885714 48.761905-43.885714h58.514286c24.380952 0 48.761905 19.504762 48.761905 43.885714V413.257143c0 24.380952-19.504762 43.885714-48.761905 43.885714H92.647619z m360.838095-433.980953c-14.628571 0-29.257143-14.628571-29.257143-29.257143v-4.87619c0-14.628571 14.628571-29.257143 29.257143-29.257143h102.4c14.628571 0 29.257143 14.628571 29.257143 29.257143v4.87619c0 14.628571-14.628571 29.257143-29.257143 29.257143H453.485714z"  horiz-adv-x="1024" />

    
    <glyph glyph-name="dingdan" unicode="&#58913;" d="M832 729.6H315.733333c-85.333333-8.533333-153.6-72.533333-153.6-149.333333v-554.666667c0-85.333333 76.8-149.333333 174.933334-149.333333h426.666666c55.466667 38.4 149.333333 123.733333 183.466667 157.866666 12.8 12.8 25.6 25.6 34.133333 38.4V580.266667c0 72.533333-68.266667 136.533333-149.333333 149.333333zM358.4 742.4h251.733333c29.866667 0 55.466667 21.333333 55.466667 51.2V844.8C665.6 874.666667 640 896 610.133333 896H358.4C324.266667 896 298.666667 874.666667 298.666667 844.8v-51.2c0-25.6 25.6-51.2 59.733333-51.2z m0 102.4h251.733333v-51.2H358.4V844.8z m413.866667-12.8c-17.066667 0-29.866667-12.8-29.866667-25.6s12.8-25.6 29.866667-25.6c21.333333 0 89.6 0 89.6-119.466667v-430.933333c0-8.533333-38.4-17.066667-55.466667-17.066667h-170.666667c-51.2 0-89.6-34.133333-89.6-76.8v-132.266666c0-38.4 8.533333-59.733333 29.866667-72.533334 8.533333-4.266667 21.333333-8.533333 29.866667-8.533333 17.066667 0 34.133333 4.266667 38.4 8.533333 38.4 17.066667 174.933333 136.533333 213.333333 179.2 51.2 51.2 59.733333 81.066667 59.733333 115.2V661.333333c4.266667 106.666667-51.2 170.666667-145.066666 170.666667z m42.666666-682.666667c-51.2-51.2-174.933333-157.866667-196.266666-166.4-4.266667 0-8.533333-4.266667-12.8-4.266666 0 4.266667-4.266667 12.8-4.266667 25.6v132.266666c0 12.8 8.533333 25.6 29.866667 25.6h170.666666c4.266667 0 17.066667 0 29.866667 4.266667-4.266667-4.266667-8.533333-12.8-17.066667-17.066667z m-354.133333-174.933333c17.066667 0 29.866667-12.8 29.866667-25.6s-12.8-25.6-29.866667-25.6H234.666667C128-76.8 42.666667 0 42.666667 93.866667V661.333333c0 106.666667 59.733333 170.666667 157.866666 170.666667 17.066667 0 29.866667-12.8 29.866667-25.6s-12.8-25.6-29.866667-25.6c-85.333333 0-98.133333-72.533333-98.133333-119.466667v-571.733333c0-64 59.733333-119.466667 136.533333-119.466667h221.866667z m166.4 597.333333L554.666667 477.866667h46.933333c8.533333 0 17.066667-4.266667 21.333333-8.533334 4.266667-4.266667 8.533333-12.8 8.533334-21.333333s-4.266667-12.8-8.533334-21.333333c-4.266667-4.266667-12.8-8.533333-21.333333-8.533334H512l-17.066667-21.333333v-25.6h106.666667c8.533333 0 17.066667-4.266667 21.333333-8.533333 4.266667-4.266667 8.533333-12.8 8.533334-21.333334s-4.266667-12.8-8.533334-21.333333c-4.266667-4.266667-12.8-8.533333-21.333333-8.533333h-106.666667V213.333333c0-8.533333-4.266667-12.8-8.533333-21.333333s-12.8-8.533333-21.333333-8.533333-17.066667 4.266667-21.333334 8.533333c-4.266667 4.266667-8.533333 12.8-8.533333 21.333333v98.133334H328.533333c-8.533333 0-17.066667 4.266667-21.333333 8.533333-4.266667 17.066667-8.533333 25.6-8.533333 29.866667 0 8.533333 4.266667 12.8 8.533333 21.333333 4.266667 4.266667 12.8 8.533333 21.333333 8.533333h106.666667v25.6l-17.066667 21.333334H328.533333c-8.533333 0-17.066667 4.266667-21.333333 8.533333-4.266667 0-8.533333 8.533333-8.533333 17.066667s4.266667 12.8 8.533333 21.333333c4.266667 4.266667 12.8 8.533333 21.333333 8.533333h46.933334L302.933333 571.733333C298.666667 576 298.666667 584.533333 298.666667 588.8c0 8.533333 4.266667 12.8 8.533333 17.066667 4.266667 4.266667 12.8 8.533333 21.333333 8.533333s17.066667-4.266667 25.6-12.8l110.933334-145.066667 110.933333 145.066667c4.266667 8.533333 12.8 12.8 25.6 12.8 8.533333 0 17.066667-4.266667 21.333333-8.533333 4.266667-4.266667 8.533333-12.8 8.533334-21.333334 0 0 0-8.533333-4.266667-12.8z"  horiz-adv-x="1024" />

    
    <glyph glyph-name="xuanzekaoshi" unicode="&#58914;" d="M1024 20.945455c0-79.127273-65.163636-148.945455-148.945455-148.945455H288.581818C204.8-128 139.636364-62.836364 139.636364 20.945455V607.418182C139.636364 691.2 204.8 756.363636 288.581818 756.363636h591.127273C958.836364 756.363636 1024 691.2 1024 607.418182v-586.472727zM930.909091 118.690909c0-83.781818-69.818182-153.6-153.6-153.6H153.6C69.818182-34.909091 0 34.909091 0 118.690909V742.4C0 826.181818 69.818182 896 153.6 896h619.054545C861.090909 896 930.909091 826.181818 930.909091 742.4v-623.709091zM162.909091 849.454545C97.745455 849.454545 46.545455 798.254545 46.545455 733.090909v-605.090909C46.545455 62.836364 97.745455 11.636364 162.909091 11.636364h605.090909c65.163636 0 116.363636 51.2 116.363636 116.363636v605.090909C884.363636 798.254545 833.163636 849.454545 768 849.454545h-605.090909z m55.854545-148.945454h493.381819c13.963636 0 23.272727-9.309091 23.272727-23.272727v-4.654546c0-13.963636-9.309091-23.272727-23.272727-23.272727H218.763636c-13.963636 0-23.272727 13.963636-23.272727 23.272727v4.654546c0 13.963636 9.309091 23.272727 23.272727 23.272727z m0-246.690909h493.381819c13.963636 0 23.272727-9.309091 23.272727-23.272727s-9.309091-23.272727-23.272727-23.272728H218.763636c-13.963636 0-23.272727 9.309091-23.272727 23.272728s9.309091 23.272727 23.272727 23.272727z m0-242.036364h493.381819c13.963636 0 23.272727-9.309091 23.272727-23.272727v-4.654546c0-13.963636-9.309091-23.272727-23.272727-23.272727H218.763636c-13.963636 0-23.272727 9.309091-23.272727 23.272727v4.654546c0 9.309091 9.309091 23.272727 23.272727 23.272727z"  horiz-adv-x="1024" />

    
    <glyph glyph-name="xuanzekaoqu" unicode="&#58915;" d="M609.28 563.2c-5.12 5.12-10.24 15.36-15.36 25.6-20.48 30.72-30.72 66.56-30.72 102.4 0 112.64 92.16 204.8 204.8 204.8s204.8-92.16 204.8-204.8c0-35.84-10.24-71.68-25.6-102.4v-5.12c-5.12-5.12-10.24-15.36-15.36-20.48L768 332.8l-158.72 230.4z m46.08 25.6h230.4c20.48 25.6 35.84 61.44 35.84 102.4 0 87.04-66.56 153.6-153.6 153.6s-153.6-66.56-153.6-153.6c0-40.96 15.36-76.8 40.96-102.4zM51.2 896h256c30.72 0 51.2-20.48 51.2-51.2s-20.48-51.2-51.2-51.2H51.2c-30.72 0-51.2 20.48-51.2 51.2s20.48 51.2 51.2 51.2z m716.8-256c-30.72 0-51.2 20.48-51.2 51.2s20.48 51.2 51.2 51.2 51.2-20.48 51.2-51.2-20.48-51.2-51.2-51.2zM51.2 537.6h409.6c30.72 0 51.2-20.48 51.2-51.2s-20.48-51.2-51.2-51.2H51.2c-30.72 0-51.2 20.48-51.2 51.2s20.48 51.2 51.2 51.2z m0-409.6h921.6c30.72 0 51.2-20.48 51.2-51.2s-20.48-51.2-51.2-51.2H51.2c-30.72 0-51.2 20.48-51.2 51.2s20.48 51.2 51.2 51.2z m716.8 286.72L880.64 588.8h-230.4L768 414.72zM1126.4 25.6c0-87.04-66.56-153.6-153.6-153.6H358.4c-87.04 0-153.6 66.56-153.6 153.6V640c0 87.04 66.56 153.6 153.6 153.6h614.4c87.04 0 153.6-66.56 153.6-153.6v-614.4zM660.48 563.2c-5.12 5.12-10.24 15.36-15.36 25.6-20.48 30.72-30.72 66.56-30.72 102.4 0 112.64 92.16 204.8 204.8 204.8s204.8-92.16 204.8-204.8c0-35.84-10.24-71.68-25.6-102.4v-5.12c-5.12-5.12-10.24-15.36-15.36-20.48L819.2 332.8l-158.72 230.4zM609.28 563.2c-5.12 5.12-10.24 15.36-15.36 25.6-20.48 30.72-30.72 66.56-30.72 102.4 0 112.64 92.16 204.8 204.8 204.8s204.8-92.16 204.8-204.8c0-35.84-10.24-71.68-25.6-102.4v-5.12c-5.12-5.12-10.24-15.36-15.36-20.48L768 332.8l-158.72 230.4z m46.08 25.6h230.4c20.48 25.6 35.84 61.44 35.84 102.4 0 87.04-66.56 153.6-153.6 153.6s-153.6-66.56-153.6-153.6c0-40.96 15.36-76.8 40.96-102.4zM51.2 896h256c30.72 0 51.2-20.48 51.2-51.2s-20.48-51.2-51.2-51.2H51.2c-30.72 0-51.2 20.48-51.2 51.2s20.48 51.2 51.2 51.2z m716.8-256c-30.72 0-51.2 20.48-51.2 51.2s20.48 51.2 51.2 51.2 51.2-20.48 51.2-51.2-20.48-51.2-51.2-51.2zM51.2 537.6h409.6c30.72 0 51.2-20.48 51.2-51.2s-20.48-51.2-51.2-51.2H51.2c-30.72 0-51.2 20.48-51.2 51.2s20.48 51.2 51.2 51.2z m0-409.6h921.6c30.72 0 51.2-20.48 51.2-51.2s-20.48-51.2-51.2-51.2H51.2c-30.72 0-51.2 20.48-51.2 51.2s20.48 51.2 51.2 51.2z m716.8 286.72L880.64 588.8h-230.4L768 414.72z"  horiz-adv-x="1126" />

    
    <glyph glyph-name="qingchu1" unicode="&#58917;" d="M255.270556 384c0-282.75 229.25-512 512-512 282.75 0 512 229.25 512 512 0 282.75-229.25 512-512 512-282.75 0-512-229.25-512-512zM767.270556 429.5L937.895556 594.5c11.375 11.375 34.125 11.375 45.5 0 11.375-11.375 11.375-34.125 0-45.5l-170.625-165 165-170.625c11.375-11.375 11.375-34.125 0-45.5-11.375-11.375-34.125-11.375-45.5 0l-165 170.625-170.625-165c-11.375-11.375-34.125-11.375-45.5 0-11.375 11.375-11.375 34.125 0 45.5l170.625 165L551.020556 554.625c-11.375 17.125-11.375 39.875 0 51.25 11.375 11.375 34.125 11.375 45.5 0l170.75-176.375z m0 0"  horiz-adv-x="2330" />

    
    <glyph glyph-name="jiantoucopyx" unicode="&#58919;" d="M331.419087 386.124481l424.896266-450.390041c8.497925-16.995851 8.497925-33.991701 0-50.987552-8.497925-16.995851-33.991701-16.995851-42.489627 0L263.435685 360.630705C254.937759 369.128631 254.937759 377.626556 254.937759 386.124481c0 8.497925 0 16.995851 8.497926 25.493776l450.390041 475.883818c0 8.497925 8.497925 8.497925 16.995851 8.497925s16.995851 0 25.493776-8.497925c8.497925-16.995851 8.497925-33.991701 0-50.987552L331.419087 386.124481z"  horiz-adv-x="1531" />

    
    <glyph glyph-name="Maskx" unicode="&#58920;" d="M512 18.285714l-219.428571-131.657143c-36.571429-21.942857-80.457143-7.314286-102.4 21.942858-7.314286 14.628571-14.628571 36.571429-7.314286 51.2l51.2 263.314285L43.885714 413.257143c-29.257143 29.257143-29.257143 73.142857 0 102.4 7.314286 14.628571 21.942857 21.942857 43.885715 21.942857l256 29.257143 102.4 241.371428c14.628571 36.571429 58.514286 58.514286 95.085714 36.571429 14.628571-7.314286 29.257143-21.942857 36.571428-36.571429l102.4-241.371428 256-29.257143c36.571429-7.314286 65.828571-36.571429 65.828572-80.457143 0-14.628571-7.314286-36.571429-21.942857-43.885714l-197.485715-182.857143 51.2-263.314286c7.314286-36.571429-14.628571-80.457143-58.514285-87.771428-14.628571-7.314286-36.571429 0-51.2 7.314285L512 18.285714zM512 18.285714l-219.428571-131.657143c-36.571429-21.942857-80.457143-7.314286-102.4 21.942858-7.314286 14.628571-14.628571 36.571429-7.314286 51.2l51.2 263.314285L43.885714 413.257143c-29.257143 29.257143-29.257143 73.142857 0 102.4 7.314286 14.628571 21.942857 21.942857 43.885715 21.942857l256 29.257143 102.4 241.371428c14.628571 36.571429 58.514286 58.514286 95.085714 36.571429 14.628571-7.314286 29.257143-21.942857 36.571428-36.571429l102.4-241.371428 256-29.257143c36.571429-7.314286 65.828571-36.571429 65.828572-80.457143 0-14.628571-7.314286-36.571429-21.942857-43.885714l-197.485715-182.857143 51.2-263.314286c7.314286-36.571429-14.628571-80.457143-58.514285-87.771428-14.628571-7.314286-36.571429 0-51.2 7.314285L512 18.285714z"  horiz-adv-x="1024" />

    
    <glyph glyph-name="huisex" unicode="&#58921;" d="M512 18.285714l-219.428571-131.657143c-36.571429-21.942857-80.457143-7.314286-102.4 21.942858-7.314286 14.628571-14.628571 36.571429-7.314286 51.2l51.2 263.314285L43.885714 413.257143c-29.257143 29.257143-29.257143 73.142857 0 102.4 7.314286 14.628571 21.942857 21.942857 43.885715 21.942857l256 29.257143 102.4 241.371428c14.628571 36.571429 58.514286 58.514286 95.085714 36.571429 14.628571-7.314286 29.257143-21.942857 36.571428-36.571429l102.4-241.371428 256-29.257143c36.571429-7.314286 65.828571-36.571429 65.828572-80.457143 0-14.628571-7.314286-36.571429-21.942857-43.885714l-197.485715-182.857143 51.2-263.314286c7.314286-36.571429-14.628571-80.457143-58.514285-87.771428-14.628571-7.314286-36.571429 0-51.2 7.314285L512 18.285714zM512 18.285714l-219.428571-131.657143c-36.571429-21.942857-80.457143-7.314286-102.4 21.942858-7.314286 14.628571-14.628571 36.571429-7.314286 51.2l51.2 263.314285L43.885714 413.257143c-29.257143 29.257143-29.257143 73.142857 0 102.4 7.314286 14.628571 21.942857 21.942857 43.885715 21.942857l256 29.257143 102.4 241.371428c14.628571 36.571429 58.514286 58.514286 95.085714 36.571429 14.628571-7.314286 29.257143-21.942857 36.571428-36.571429l102.4-241.371428 256-29.257143c36.571429-7.314286 65.828571-36.571429 65.828572-80.457143 0-14.628571-7.314286-36.571429-21.942857-43.885714l-197.485715-182.857143 51.2-263.314286c7.314286-36.571429-14.628571-80.457143-58.514285-87.771428-14.628571-7.314286-36.571429 0-51.2 7.314285L512 18.285714z"  horiz-adv-x="1024" />

    
    <glyph glyph-name="zuoyecopyx" unicode="&#58922;" d="M371.2 896c8.533333 0 25.6 0 34.133333-8.533333l418.133334-110.933334c34.133333-8.533333 68.266667-34.133333 85.333333-68.266666 17.066667-34.133333 25.6-76.8 17.066667-110.933334l-136.533334-512c-8.533333-25.6-25.6-51.2-51.2-59.733333l-324.266666-145.066667c-42.666667-17.066667-85.333333-8.533333-110.933334 25.6L98.133333 187.733333c-17.066667 25.6-17.066667 51.2-17.066666 76.8l136.533333 512C251.733333 853.333333 311.466667 896 371.2 896z m0-93.866667c-25.6 0-51.2-17.066667-51.2-42.666666l-136.533333-512 204.8-281.6 324.266666 145.066666 136.533334 512c0 17.066667 0 25.6-8.533334 42.666667-8.533333 8.533333-17.066667 25.6-34.133333 25.6L388.266667 802.133333h-17.066667zM328.533333 213.333333c-17.066667 0-25.6 8.533333-34.133333 17.066667-8.533333 8.533333-8.533333 25.6-8.533333 42.666667l110.933333 418.133333c0 17.066667 17.066667 25.6 34.133333 34.133333 17.066667 0 34.133333 0 42.666667-8.533333 8.533333-8.533333 17.066667-25.6 8.533333-42.666667L371.2 256c-8.533333-25.6-25.6-42.666667-42.666667-42.666667z"  horiz-adv-x="1024" />

    
    <glyph glyph-name="dizhi" unicode="&#58923;" d="M187.144828-64.441379c0-21.186207 158.896552-35.310345 356.634482-35.310345s356.634483 17.655172 356.634483 35.310345-158.896552 35.310345-356.634483 35.310345-356.634483-14.124138-356.634482-35.310345zM543.77931 832.441379c173.02069 0 310.731034-141.241379 310.731035-314.262069 0-303.668966-310.731034-497.875862-310.731035-497.875862s-310.731034 194.206897-310.731034 497.875862c0 173.02069 137.710345 314.262069 310.731034 314.262069zM448.441379 507.586207c0-52.965517 42.372414-95.337931 95.337931-95.337931s95.337931 42.372414 95.337931 95.337931-42.372414 95.337931-95.337931 95.337931-95.337931-42.372414-95.337931-95.337931zM850.97931 896c21.186207 0 38.841379-17.655172 38.84138-38.841379s-17.655172-38.841379-38.84138-38.84138c-21.186207 0-38.841379 17.655172-38.841379 38.84138S829.793103 896 850.97931 896z m0-21.186207c7.062069 0 14.124138-3.531034 17.655173-14.124138s0-17.655172-3.531035-21.186207-14.124138-7.062069-21.186207-3.531034c-7.062069 3.531034-10.593103 10.593103-10.593103 17.655172 0 14.124138 7.062069 21.186207 17.655172 21.186207zM24.717241 613.517241c0-42.372414 35.310345-77.682759 77.682759-77.682758S176.551724 571.144828 176.551724 613.517241 141.241379 691.2 98.868966 691.2 24.717241 655.889655 24.717241 613.517241zM776.827586 140.358621c0-21.186207 10.593103-42.372414 31.779311-56.496552s42.372414-10.593103 63.55862 0 31.77931 31.77931 31.779311 56.496552c0 21.186207-10.593103 42.372414-31.779311 56.496551s-42.372414 10.593103-63.55862 0-31.77931-31.77931-31.779311-56.496551zM1038.124138 542.896552c-21.186207 0-42.372414 14.124138-49.434483 35.310345-7.062069 21.186207-3.531034 45.903448 10.593104 60.027586 17.655172 14.124138 38.841379 17.655172 60.027586 10.593103s35.310345-28.248276 35.310345-49.434483c0-14.124138-7.062069-28.248276-17.655173-38.841379s-24.717241-17.655172-38.841379-17.655172z m0 88.275862c-14.124138 0-24.717241-7.062069-31.77931-21.186207-3.531034-14.124138-3.531034-28.248276 7.062069-35.310345s24.717241-10.593103 35.310344-7.062069 21.186207 17.655172 21.186207 31.77931c0 7.062069-3.531034 17.655172-10.593103 24.717242-3.531034 3.531034-10.593103 7.062069-21.186207 7.062069z"  horiz-adv-x="1094" />

    
    <glyph glyph-name="weixinzhifu" unicode="&#58924;" d="M735.017263-1.837543v-18.608032c4.652008 4.652008 4.652008 13.956024 4.652008 18.608032h-4.652008c4.652008 4.652008 4.652008 0 0 0zM274.468472 393.583136l18.608032-23.26004h4.652008l-23.26004 23.26004zM427.984736 254.022897c-65.128112-37.216064-74.432128 18.608032-74.432128 18.608032L265.164456 468.015264c-32.564056 88.388152 27.912048 41.868072 27.912048 41.868072s51.172088-37.216064 88.388152-60.476104c37.216064-23.26004 83.736144-4.652008 83.736144-4.652008l544.284935 251.208432C911.793567 812.263856 748.973287 896 558.240959 896 251.208432 896 0 677.355624 0 412.191168c0-153.516264 83.736144-293.076504 209.34036-381.464655L186.08032-104.181719s-9.304016-37.216064 27.912048-18.608032c27.912048 13.956024 93.04016 55.824096 134.908232 83.736144 65.128112-23.26004 134.908232-32.564056 204.688351-32.564056 307.032528 0 558.240959 218.644376 558.24096 483.808831 0 79.084136-23.26004 148.864256-60.476104 213.992368-167.472288-102.344176-572.196983-344.248592-623.369071-372.160639z"  horiz-adv-x="1116" />

    
    <glyph glyph-name="StarCopyx" unicode="&#58925;" d="M487.619048 262.095238l-146.285715-87.771428c-24.380952-14.628571-53.638095-4.87619-68.266666 14.628571-4.87619 9.752381-9.752381 24.380952-4.876191 34.133333l34.133334 175.542857-131.657143 121.904762c-19.504762 19.504762-19.504762 48.761905 0 68.266667 9.752381 9.752381 19.504762 14.628571 29.257143 14.628571l170.666666 19.504762L438.857143 783.847619c9.752381 24.380952 39.009524 39.009524 63.390476 24.380952 9.752381-4.87619 19.504762-14.628571 24.380952-24.380952l68.266667-160.914286 170.666667-19.504762c24.380952-4.87619 43.885714-24.380952 43.885714-53.638095 0-9.752381-4.87619-24.380952-14.628571-29.257143l-131.657143-121.904762 34.133333-175.542857c4.87619-24.380952-9.752381-53.638095-39.009524-58.514285-9.752381-4.87619-24.380952 0-34.133333 4.87619L487.619048 262.095238zM487.619048 262.095238l-146.285715-87.771428c-24.380952-14.628571-53.638095-4.87619-68.266666 14.628571-4.87619 9.752381-9.752381 24.380952-4.876191 34.133333l34.133334 175.542857-131.657143 121.904762c-19.504762 19.504762-19.504762 48.761905 0 68.266667 9.752381 9.752381 19.504762 14.628571 29.257143 14.628571l170.666666 19.504762L438.857143 783.847619c9.752381 24.380952 39.009524 39.009524 63.390476 24.380952 9.752381-4.87619 19.504762-14.628571 24.380952-24.380952l68.266667-160.914286 170.666667-19.504762c24.380952-4.87619 43.885714-24.380952 43.885714-53.638095 0-9.752381-4.87619-24.380952-14.628571-29.257143l-131.657143-121.904762 34.133333-175.542857c4.87619-24.380952-9.752381-53.638095-39.009524-58.514285-9.752381-4.87619-24.380952 0-34.133333 4.87619L487.619048 262.095238z"  horiz-adv-x="3783" />

    
    <glyph glyph-name="StarCopyx1" unicode="&#58926;" d="M536.380952 262.095238l-146.285714-87.771428c-24.380952-14.628571-53.638095-4.87619-68.266667 14.628571-4.87619 9.752381-9.752381 24.380952-4.87619 34.133333l34.133333 175.542857-126.780952 126.780953c-19.504762 19.504762-19.504762 48.761905 0 68.266666 4.87619 9.752381 14.628571 14.628571 29.257143 14.628572l170.666666 19.504762 68.266667 160.914286c9.752381 24.380952 39.009524 39.009524 63.390476 24.380952 9.752381-4.87619 19.504762-14.628571 24.380953-24.380952l68.266666-160.914286 170.666667-19.504762c24.380952-4.87619 43.885714-24.380952 43.885714-53.638095 0-9.752381-4.87619-24.380952-14.628571-29.257143l-131.657143-121.904762 34.133333-175.542857c4.87619-24.380952-9.752381-53.638095-39.009523-58.514286-9.752381-4.87619-24.380952 0-34.133334 4.876191L536.380952 262.095238zM536.380952 262.095238l-146.285714-87.771428c-24.380952-14.628571-53.638095-4.87619-68.266667 14.628571-4.87619 9.752381-9.752381 24.380952-4.87619 34.133333l34.133333 175.542857-126.780952 126.780953c-19.504762 19.504762-19.504762 48.761905 0 68.266666 4.87619 9.752381 14.628571 14.628571 29.257143 14.628572l170.666666 19.504762 68.266667 160.914286c9.752381 24.380952 39.009524 39.009524 63.390476 24.380952 9.752381-4.87619 19.504762-14.628571 24.380953-24.380952l68.266666-160.914286 170.666667-19.504762c24.380952-4.87619 43.885714-24.380952 43.885714-53.638095 0-9.752381-4.87619-24.380952-14.628571-29.257143l-131.657143-121.904762 34.133333-175.542857c4.87619-24.380952-9.752381-53.638095-39.009523-58.514286-9.752381-4.87619-24.380952 0-34.133334 4.876191L536.380952 262.095238z"  horiz-adv-x="1072" />

    
    <glyph glyph-name="tuzix" unicode="&#58927;" d="M963.764756 201.246118c-4.015686-180.705882-209.819608-326.27451-459.796078-326.27451C254.996129-126.032314 56.219658 20.540235 60.235344 201.246118 64.251031 381.952 270.054952 527.520627 520.031423 527.520627 769.003972 527.520627 967.780442 380.948078 963.764756 201.246118M490.917697 39.654902s-57.223529-8.031373-42.164706-35.137255c14.054902-25.098039 52.203922-6.023529 71.278432-36.141176l76.298039-15.058824 19.07451 36.141177s0 21.082353-57.22353 28.109803c-57.223529 7.027451-37.145098 24.094118-37.145098 24.094118l-30.117647-2.007843zM522.039266-28.611765l72.282353-14.054902 17.066666 33.129412c-1.003922 3.011765-7.027451 18.070588-54.211764 24.094118-26.101961 3.011765-40.156863 9.035294-43.168628 17.066666-1.003922 2.007843-1.003922 4.015686 0 6.02353l-24.094117-2.007843c-9.035294-1.003922-35.137255-7.027451-40.156863-19.07451-2.007843-3.011765-1.003922-7.027451 1.003922-12.047059 6.023529-10.039216 17.066667-12.047059 30.117647-14.054902 14.054902-1.003922 30.117647-4.015686 41.160784-19.07451z m75.294118-22.086274l-79.309804 16.062745-1.003922 1.003921c-9.035294 14.054902-23.090196 16.062745-37.145098 19.07451-13.05098 2.007843-26.101961 4.015686-34.133333 17.066667-4.015686 6.023529-4.015686 12.047059-2.007843 18.070588 8.031373 17.066667 44.172549 22.086275 45.17647 22.086275l39.152941 3.011764-7.027451-6.023529s-3.011765-3.011765-2.007843-6.023529c1.003922-3.011765 6.023529-9.035294 37.145098-13.050981 58.227451-7.027451 59.231373-28.109804 59.231373-31.121568v-1.003922l-18.070588-39.152941zM463.811815 68.768627s5.019608-16.062745 15.058823-24.094117c9.035294-9.035294 32.12549-7.027451 42.164706-3.011765 10.039216 4.015686 23.090196 28.109804 23.090196 36.141177 0 7.027451-80.313725-9.035294-80.313725-9.035295M467.827501 66.760784c2.007843-5.019608 6.023529-14.054902 13.050981-19.074509 4.015686-4.015686 11.043137-6.023529 21.082353-6.02353 7.027451 0 14.054902 1.003922 18.070588 3.011765 8.031373 3.011765 19.07451 23.090196 21.082353 31.121568h-5.019608c-17.066667 0-56.219608-7.027451-68.266667-9.035294m33.129412-31.121568c-6.023529 0-18.070588 1.003922-25.098039 7.027451-10.039216 9.035294-15.058824 25.098039-16.062745 26.10196l-1.003922 3.011765 4.015686 1.003922c2.007843 0 52.203922 10.039216 73.286275 10.039215 5.019608 0 8.031373-1.003922 10.039216-2.007843 1.003922-1.003922 1.003922-2.007843 1.003921-3.011764 0-9.035294-13.05098-34.133333-25.098039-39.152942-5.019608-2.007843-13.05098-3.011765-21.082353-3.011764M324.266717 662.086275S349.364756 766.494118 383.498089 845.803922C417.631423 925.113725 497.945148 890.980392 520.031423 831.74902s53.207843-135.529412 53.207843-135.529412-178.698039-41.160784-248.972549-34.133333M324.266717 662.086275s55.215686 62.243137 125.490196 69.270588c44.172549 4.015686 32.12549 23.090196 47.184314 43.168627 17.066667 24.094118 34.133333 17.066667 24.094117 57.22353 22.086275-59.231373 53.207843-135.529412 53.207843-135.529412S394.541227 655.058824 324.266717 662.086275M328.282403 665.098039h14.054902c70.27451 0 203.796078 29.113725 226.886275 34.133334-6.023529 16.062745-33.129412 81.317647-52.203922 132.517647C504.972599 864.878431 472.847109 889.976471 442.729462 889.976471c-24.094118 0-44.172549-16.062745-56.219608-44.172549-30.117647-71.278431-53.207843-161.631373-58.227451-180.705883m14.054902-7.027451c-7.027451 0-13.05098 0-18.070588 1.003922h-4.015686l1.003921 4.015686c0 1.003922 26.101961 105.411765 59.231373 183.717647C393.537305 877.929412 416.627501 894.996078 442.729462 894.996078c33.129412 0 66.258824-26.101961 80.313725-62.243137 22.086275-58.227451 53.207843-134.52549 53.207844-135.529412l1.003921-3.011764-4.015686-1.003922c0-1.003922-152.596078-35.137255-230.901961-35.137255M572.235344 712.282353s32.12549 20.078431 72.282353 30.117647c40.156863 9.035294 95.372549 3.011765 128.501961-41.160784 28.109804-37.145098 45.176471-128.501961 43.168627-142.556863-3.011765-14.054902-231.905882 79.309804-231.905882 79.309804L572.235344 712.282353zM572.235344 712.282353s32.12549 20.078431 72.282353 30.117647c40.156863 9.035294 3.011765-23.090196 36.141177-66.258824 28.109804-37.145098 137.537255-103.403922 134.52549-116.454901-3.011765-14.054902-231.905882 79.309804-231.905882 79.309803L572.235344 712.282353zM586.290246 640c19.07451-8.031373 198.776471-79.309804 225.882353-79.309804h1.003922c2.007843 17.066667-16.062745 103.403922-42.164706 138.541177-29.113725 38.14902-71.278431 43.168627-94.368628 43.168627-11.043137 0-21.082353-1.003922-31.121568-4.015686-33.129412-8.031373-62.243137-24.094118-69.270588-28.109804l10.039215-70.27451z m225.882353-86.337255c-30.117647 0-221.866667 77.301961-229.898039 80.313726l-2.007843 1.003921-12.047059 78.305883 2.007843 1.003921c1.003922 1.003922 33.129412 21.082353 73.286275 30.117647 11.043137 3.011765 22.086275 4.015686 33.129411 4.015686 24.094118 0 68.266667-6.023529 99.388236-46.180392 28.109804-37.145098 46.180392-130.509804 43.168627-144.564706-1.003922-1.003922-3.011765-4.015686-7.027451-4.015686zM646.52554 714.290196c0-38.14902-33.129412-69.270588-74.290196-69.270588s-74.290196 31.121569-74.290196 69.270588 33.129412 69.270588 74.290196 69.270588 74.290196-31.121569 74.290196-69.270588M646.52554 714.290196c2.007843-38.14902-33.129412-69.270588-74.290196-69.270588s-78.305882 31.121569-74.290196 69.270588c6.023529 60.235294 18.070588 14.054902 74.290196 12.047059 57.223529-2.007843 71.278431 38.14902 74.290196-12.047059M572.235344 779.545098c-39.152941 0-71.278431-29.113725-71.278431-65.254902s32.12549-65.254902 71.278431-65.254902 71.278431 29.113725 71.278432 65.254902-32.12549 65.254902-71.278432 65.254902m0-137.537255c-43.168627 0-77.301961 32.12549-77.30196 72.282353s35.137255 72.282353 77.30196 72.282353c43.168627 0 77.301961-32.12549 77.301961-72.282353s-35.137255-72.282353-77.301961-72.282353M832.251031 187.231373s9.035294-89.34902-75.294118-170.666667L701.741227 62.745098l5.019608 52.203922 125.490196 72.282353zM832.251031 187.231373s13.05098-23.090196-71.278432-105.411765l-59.231372-20.078432 5.019608 52.203922 125.490196 73.286275zM704.752991 63.74902l52.203922-43.168628c69.270588 68.266667 72.282353 141.552941 72.282353 161.631373L709.772599 112.941176l-5.019608-49.192156z m52.203922-52.203922l-59.231373 49.192157 5.019608 55.215686 130.509804 76.298039 1.003922-5.019607c0-1.003922 8.031373-91.356863-76.298039-173.678432l-1.003922-2.007843zM680.658874 684.172549s-65.254902 33.129412-165.647059 29.113726c-99.388235-4.015686-165.647059-30.117647-165.647059-30.117648-23.090196-8.031373-61.239216-36.141176-61.239216-36.141176S114.447109 504.470588 160.627501 277.584314s371.45098-218.854902 371.450981-218.854902 183.717647 10.039216 273.066666 100.392157c82.321569 83.32549 73.286275 192.752941 73.286275 192.752941s0 166.65098-131.513726 293.145098c0 0-23.090196 24.094118-66.258823 39.152941M531.07456 711.278431h-15.058824c-98.384314-4.015686-164.643137-30.117647-164.643137-30.117647-22.086275-7.027451-60.235294-36.141176-60.235294-36.141176s-43.168627-36.141176-80.313725-99.388235c-34.133333-58.227451-70.27451-151.592157-46.180393-267.043138 43.168627-209.819608 332.298039-216.847059 365.427451-216.847059h3.011765c2.007843 0 183.717647 11.043137 271.058824 99.388236 80.313725 81.317647 72.282353 188.737255 72.282353 189.741176 0 2.007843-2.007843 166.65098-131.513726 291.137255 0 0-23.090196 23.090196-65.254902 38.14902-1.003922 1.003922-59.231373 31.121569-148.580392 31.121568m-2.007843-655.560784c-33.129412 0-327.278431 6.023529-371.450981 221.866667-24.094118 117.458824 12.047059 212.831373 47.184314 272.062745 38.14902 64.25098 81.317647 100.392157 82.321569 100.392157 2.007843 1.003922 39.152941 29.113725 62.243137 37.145098 0 0 67.262745 26.101961 166.65098 30.117647H532.078482c88.345098 0 147.576471-28.109804 150.588235-30.117647 43.168627-15.058824 66.258824-39.152941 67.262745-40.156863 130.509804-126.494118 132.517647-294.14902 132.517647-295.152941 0-1.003922 8.031373-111.435294-74.290196-194.760785-88.345098-90.352941-273.066667-101.396078-275.07451-101.396078h-4.015686M785.066717 286.619608c-56.219608 0-111.435294 1.003922-167.654902 1.003921-10.039216 0-10.039216-16.062745 0-16.062745 56.219608 0 111.435294-1.003922 167.654902-1.003921 10.039216 0 10.039216 16.062745 0 16.062745M412.611815 290.635294c-56.219608 0-111.435294 1.003922-167.654902 1.003922-10.039216 0-10.039216-16.062745 0-16.062745 56.219608 0 111.435294-1.003922 167.654902-1.003922 10.039216 0 10.039216 16.062745 0 16.062745M305.192207 261.521569c0-16.062745-13.05098-29.113725-29.113725-29.113726-16.062745 0-29.113725 13.05098-29.113726 29.113726 0 16.062745 13.05098 29.113725 29.113726 29.113725 16.062745 0 29.113725-13.05098 29.113725-29.113725M673.631423 256.501961c0-16.062745-13.05098-29.113725-29.113726-29.113726-16.062745 0-29.113725 13.05098-29.113725 29.113726 0 16.062745 13.05098 29.113725 29.113725 29.113725 16.062745 0 29.113725-13.05098 29.113726-29.113725M287.121619 198.27451c0-10.039216-18.070588-18.070588-39.152941-18.070588-22.086275 0-39.152941 9.035294-39.152942 19.074509 0 10.039216 18.070588 18.070588 39.152942 18.070589 22.086275-1.003922 39.152941-9.035294 39.152941-19.07451M246.964756 215.341176c-20.078431 0-37.145098-7.027451-37.145098-16.062745 0-4.015686 4.015686-8.031373 10.039216-12.047058 7.027451-3.011765 17.066667-5.019608 27.105882-5.019608h1.003922c20.078431 0 37.145098 7.027451 37.145098 16.062745 0 4.015686-4.015686 8.031373-10.039216 12.047059-7.027451 3.011765-16.062745 5.019608-28.109804 5.019607z m2.007843-37.145098c-12.047059 0-22.086275 2.007843-29.113725 6.02353-8.031373 4.015686-12.047059 9.035294-12.047059 14.054902 0 11.043137 18.070588 19.07451 40.156863 19.07451h1.003921c11.043137 0 21.082353-2.007843 28.109804-6.02353 8.031373-4.015686 12.047059-9.035294 12.047059-14.054902 0-10.039216-18.070588-19.07451-40.156863-19.07451zM788.078482 197.270588c0-10.039216-18.070588-18.070588-39.152942-18.070588-22.086275 0-39.152941 9.035294-39.152941 19.07451 0 10.039216 18.070588 18.070588 39.152941 18.070588 22.086275-1.003922 39.152941-9.035294 39.152942-19.07451M747.921619 214.337255c-20.078431 0-37.145098-7.027451-37.145098-16.062745 0-4.015686 4.015686-8.031373 10.039215-12.047059 7.027451-3.011765 17.066667-5.019608 27.105883-5.019608h1.003921c20.078431 0 37.145098 7.027451 37.145098 16.062745 0 4.015686-4.015686 8.031373-10.039215 12.047059-7.027451 3.011765-17.066667 5.019608-28.109804 5.019608z m1.003921-37.145098c-12.047059 0-22.086275 2.007843-29.113725 6.023529-8.031373 4.015686-12.047059 9.035294-12.047059 14.054902 0 11.043137 18.070588 19.07451 40.156863 19.07451h1.003921c11.043137 0 21.082353-2.007843 28.109804-6.023529 8.031373-4.015686 12.047059-9.035294 12.047059-14.054902 0-10.039216-17.066667-19.07451-40.156863-19.07451zM208.815736 182.211765S287.121619 70.776471 514.007893 62.745098c0 0 52.203922-2.007843 144.564706 22.086275 93.364706 24.094118 138.541176 73.286275 138.541177 73.286274s55.215686 47.184314 71.278431 130.509804c0 0-41.160784-115.45098-152.596078-162.635294-111.435294-47.184314-198.776471-40.156863-247.968628-34.133333-94.368627 13.05098-167.654902 31.121569-259.011765 90.352941M446.745148 204.298039c15.058824-25.098039 55.215686-10.039216 55.215687 18.070588-3.011765 0-5.019608-1.003922-8.031373-1.003921 4.015686-26.101961 32.12549-42.164706 55.215686-25.098039 4.015686 3.011765 0 10.039216-4.015686 7.027451-19.07451-13.05098-40.156863 0-43.168627 20.078431-1.003922 4.015686-8.031373 3.011765-8.031373-1.003922 0-20.078431-29.113725-32.12549-40.156863-14.054902-3.011765 4.015686-10.039216 0-7.027451-4.015686M383.498089 621.929412S347.356913 758.462745 247.968678 798.619608c-71.278431 29.113725-111.435294 4.015686-130.509804-37.145098-16.062745-36.141176 3.011765-97.380392 94.368627-97.380392 81.317647 0 111.435294-77.301961 111.435294-77.301961M319.247109 585.788235c0 1.003922-30.117647 75.294118-108.423529 75.294118-43.168627 0-75.294118 14.054902-91.356863 39.152941-12.047059 19.07451-14.054902 43.168627-5.019608 63.247059 31.121569 68.266667 97.380392 53.207843 134.52549 38.14902 99.388235-41.160784 137.537255-177.694118 137.537255-178.69804l-6.023529-2.007843c0 1.003922-37.145098 135.529412-133.521569 174.682353-76.298039 32.12549-110.431373-1.003922-126.494118-35.137255-8.031373-18.070588-7.027451-40.156863 4.015687-57.223529 15.058824-23.090196 45.176471-36.141176 86.337255-36.141177 82.321569 0 114.447059-78.305882 114.447058-79.309804l-6.023529-2.007843zM707.764756 597.835294s49.192157 66.258824 150.588235 66.258824c89.34902 0 85.333333 90.352941 37.145098 124.486274-29.113725 21.082353-61.239216 12.047059-100.392156 0-64.25098-19.07451-141.552941-114.447059-150.588236-169.662745M709.772599 595.827451l-5.019608 4.015686c1.003922 1.003922 52.203922 67.262745 152.596079 67.262745 34.133333 0 57.223529 13.05098 65.254902 38.14902 9.035294 27.105882-4.015686 62.243137-30.117647 80.313725-29.113725 20.078431-61.239216 11.043137-98.384314 0-63.247059-19.07451-139.545098-113.443137-148.580392-166.65098l-6.02353 1.003922c9.035294 55.215686 87.341176 152.596078 152.596079 171.670588 37.145098 11.043137 72.282353 22.086275 103.403921 0 28.109804-20.078431 42.164706-57.223529 32.125491-87.341177-5.019608-16.062745-21.082353-42.164706-71.278432-42.164705-96.376471-1.003922-145.568627-65.254902-146.572549-66.258824M703.74907 637.992157s12.047059 30.117647 38.149019 46.180392c17.066667 11.043137 39.152941 17.066667 48.188236 8.031373 12.047059-12.047059 2.007843-24.094118-11.043138-21.082353-5.019608 1.003922-25.098039 4.015686-37.145098-2.007844-22.086275-12.047059-26.101961-17.066667-38.149019-31.121568M777.035344 694.211765c-9.035294 0-22.086275-4.015686-34.133333-12.047059-15.058824-10.039216-26.101961-24.094118-32.12549-34.133333 7.027451 8.031373 14.054902 13.05098 30.117647 20.078431 5.019608 3.011765 12.047059 4.015686 21.082353 4.015686 8.031373 0 15.058824-1.003922 17.066666-2.007843 6.023529-1.003922 12.047059 2.007843 14.054902 6.023529 2.007843 4.015686 0 8.031373-4.015686 13.050981-3.011765 4.015686-7.027451 5.019608-12.047059 5.019608z m-78.305882-65.254902l4.015686 9.035294c0 1.003922 12.047059 30.117647 39.152941 47.184314 12.047059 8.031373 26.101961 12.047059 36.141177 12.047058 6.023529 0 11.043137-2.007843 14.054902-5.019607 5.019608-5.019608 7.027451-11.043137 5.019608-16.062746-2.007843-6.023529-10.039216-9.035294-17.066667-8.031372-3.011765 0-9.035294 1.003922-17.066667 1.003921-8.031373 0-15.058824-1.003922-19.074509-4.015686-22.086275-11.043137-26.101961-16.062745-37.145098-29.113725l-8.031373-7.027451zM337.317697 629.960784s-7.027451 31.121569-30.117647 52.203922c-15.058824 14.054902-35.137255 23.090196-46.180392 16.062745-14.054902-10.039216-6.023529-23.090196 7.027451-23.090196 5.019608 0 25.098039 0 36.141176-8.031373 21.082353-15.058824 24.094118-21.082353 33.129412-37.145098M269.051031 677.145098c6.023529 0 25.098039-1.003922 36.141176-9.035294 15.058824-11.043137 20.078431-17.066667 26.101961-25.098039-4.015686 11.043137-12.047059 26.101961-26.101961 38.149019-12.047059 11.043137-26.101961 18.070588-36.141176 18.070589-3.011765 0-6.023529-1.003922-8.031373-2.007844-5.019608-4.015686-7.027451-8.031373-6.023529-12.047058 3.011765-5.019608 8.031373-8.031373 14.054902-8.031373z m72.282353-56.219608l-5.019608 9.035294c-9.035294 16.062745-12.047059 21.082353-32.125491 35.137255-10.039216 7.027451-29.113725 8.031373-35.137254 8.031373-7.027451 0-14.054902 4.015686-15.058824 10.039215-2.007843 6.023529 1.003922 11.043137 7.027451 16.062746 3.011765 2.007843 6.023529 3.011765 10.039216 3.011764 10.039216 0 25.098039-7.027451 38.149019-19.07451 24.094118-21.082353 30.117647-51.2 31.121569-53.207843l1.003922-9.035294zM386.509854 624.941176s-13.05098 35.137255-23.090196 60.235295c0 0 33.129412 11.043137 81.317647 19.074509 0 0-56.219608-14.054902-58.227451-79.309804M709.772599 595.827451s16.062745 21.082353 44.172549 37.145098c0 0 9.035294-9.035294 32.12549-39.152941 16.062745-21.082353 24.094118-34.133333 24.094118-34.133333s-38.14902 54.211765-100.392157 36.141176M704.752991 599.843137s21.082353 26.101961 55.215687 44.172549C795.105933 662.086275 823.215736 665.098039 823.215736 665.098039s17.066667 2.007843 20.078432 2.007843h5.019608s28.109804-1.003922 43.168627 7.027451c16.062745 8.031373 19.07451 13.05098 19.07451 13.050981s17.066667 15.058824 13.05098 46.180392c-4.015686 30.117647-24.094118 48.188235-24.094117 48.188235s26.101961-65.254902 3.011764-84.329412c-23.090196-20.078431-57.223529-14.054902-68.266666-16.062745-11.043137-2.007843-33.129412-4.015686-71.278432-21.082353-38.14902-17.066667-51.2-50.196078-54.211764-54.211764l-4.015687-6.02353zM377.47456 618.917647l-6.023529 12.047059s-19.07451 39.152941-34.133334 67.262745c-19.07451 35.137255-61.239216 83.32549-61.239215 83.32549s29.113725-18.070588 57.223529-58.227451c28.109804-41.160784 39.152941-76.298039 39.152941-76.298039s7.027451-19.07451 8.031373-24.094118l-3.011765-4.015686zM688.690246 119.968627c-12.047059-18.070588-59.231373-119.466667-15.058823-130.509803 44.172549-11.043137 69.270588-2.007843 86.337255 5.019607 8.031373 3.011765 14.054902 32.12549 11.043137 57.22353-3.011765 27.105882-13.05098 57.223529-16.062745 68.266666-17.066667 13.05098-45.176471 12.047059-66.258824 0M690.698089 117.960784c-5.019608-8.031373-15.058824-29.113725-23.090196-51.2-10.039216-28.109804-12.047059-49.192157-7.027451-62.243137 3.011765-6.023529 7.027451-10.039216 13.050981-12.047059 13.05098-3.011765 25.098039-5.019608 37.145098-5.019608 22.086275 0 37.145098 6.023529 47.184314 10.039216 6.023529 2.007843 12.047059 28.109804 9.035294 54.211765-3.011765 26.101961-12.047059 54.211765-16.062745 67.262745-7.027451 5.019608-16.062745 8.031373-27.105883 8.031372-11.043137-1.003922-23.090196-4.015686-33.129412-9.035294m21.082353-137.537255c-12.047059 0-25.098039 2.007843-38.149019 5.019608-9.035294 2.007843-15.058824 8.031373-18.070588 16.062745-13.05098 33.129412 21.082353 104.407843 31.121568 119.466667v1.003922h1.003922c11.043137 6.023529 24.094118 10.039216 37.145098 10.039215 13.05098 0 24.094118-4.015686 32.12549-10.039215l1.003922-1.003922v-1.003922c4.015686-12.047059 14.054902-42.164706 17.066666-69.270588 3.011765-25.098039-2.007843-56.219608-13.05098-60.235294-14.054902-4.015686-29.113725-10.039216-50.196079-10.039216M689.694168 126.996078s-4.015686 45.176471 34.133333 50.196079 65.254902 31.121569 75.294118 0-46.180392-57.223529-46.180392-57.22353-34.133333 24.094118-65.254902 0l2.007843 7.027451zM719.811815 134.023529c17.066667 0 30.117647-7.027451 35.137255-10.039215 9.035294 4.015686 50.196078 27.105882 42.164706 52.203921-4.015686 11.043137-9.035294 13.05098-14.054902 13.050981-6.023529 0-14.054902-3.011765-23.090196-6.02353-10.039216-3.011765-21.082353-7.027451-34.133334-9.035294-14.054902-2.007843-24.094118-10.039216-29.113725-25.098039-4.015686-11.043137-3.011765-22.086275-3.011765-22.086275 8.031373 4.015686 16.062745 7.027451 26.101961 7.027451zM684.67456 112.941176l3.011765 14.054902c0 5.019608-1.003922 48.188235 37.145098 53.207844 12.047059 2.007843 23.090196 5.019608 33.129412 9.035294 10.039216 3.011765 18.070588 6.023529 25.098039 6.023529 10.039216 0 16.062745-6.023529 20.078431-17.066667 11.043137-33.129412-45.176471-60.235294-47.184314-61.239215l-2.007843-1.003922-2.007843 1.003922s-15.058824 10.039216-33.129412 10.039215c-10.039216 0-20.078431-3.011765-29.113725-10.039215l-5.019608-4.015687zM738.886325 123.984314s11.043137-4.015686 12.047059-6.02353c0 0 11.043137-28.109804 16.062745-59.231372 4.015686-26.101961-1.003922-46.180392-1.003922-46.180392s-2.007843-12.047059-7.027451-15.058824c-7.027451-4.015686-13.05098-5.019608-19.07451-7.027451-12.047059-4.015686-46.180392-6.023529-71.278431 4.015686 0 0-9.035294 4.015686-10.039216 22.086275 0 0 3.011765-15.058824 25.098039-18.070588 22.086275-4.015686 59.231373 0 66.258824 8.031372 4.015686 4.015686 9.035294 25.098039 6.023529 48.188235-2.007843 21.082353-9.035294 43.168627-11.043137 51.2-2.007843 10.039216-6.023529 18.070588-6.023529 18.070589M701.741227 161.129412s-9.035294-11.043137-8.031373-34.133334c0 0 10.039216 6.023529 22.086275 7.027451s21.082353-2.007843 21.082353-2.007843 12.047059-4.015686 17.066666-8.031372c0 0 20.078431 10.039216 34.133334 25.098039s8.031373 27.105882 8.031372 27.105882-2.007843 8.031373-7.027451 11.043138c0 0 7.027451-15.058824-2.007843-27.105883-9.035294-13.05098-32.12549-25.098039-32.12549-25.098039s-40.156863 13.05098-54.211765 2.007843c0 0-3.011765 8.031373 1.003922 24.094118M306.196129 125.992157c12.047059-18.070588 59.231373-113.443137 15.058823-124.486275-44.172549-11.043137-63.247059 3.011765-79.309804 12.047059-17.066667 9.035294-5.019608 79.309804-1.003921 112.439216 16.062745 14.054902 44.172549 12.047059 65.254902 0M243.952991 124.988235c-1.003922-5.019608-1.003922-11.043137-2.007843-17.066666-4.015686-31.121569-10.039216-84.329412 1.003922-90.352942 1.003922-1.003922 3.011765-1.003922 4.015686-2.007843 11.043137-6.023529 24.094118-13.05098 44.172549-13.05098 9.035294 0 19.07451 1.003922 29.113726 4.015686 7.027451 2.007843 11.043137 6.023529 14.054902 12.047059 11.043137 28.109804-20.078431 91.356863-30.117648 107.419608-10.039216 6.023529-22.086275 9.035294-33.129411 9.035294-11.043137-2.007843-20.078431-5.019608-27.105883-10.039216m47.184314-130.509804c-22.086275 0-36.141176 8.031373-47.184314 14.054902-1.003922 1.003922-3.011765 1.003922-4.015686 2.007843-14.054902 8.031373-11.043137 48.188235-5.019608 97.380393 1.003922 7.027451 2.007843 13.05098 2.007843 19.074509v1.003922l1.003922 1.003922c8.031373 7.027451 19.07451 10.039216 32.12549 10.039215 13.05098 0 26.101961-4.015686 37.145098-10.039215h1.003922v-1.003922c7.027451-11.043137 44.172549-80.313725 31.121568-113.443137-3.011765-8.031373-9.035294-14.054902-18.070588-16.062745-10.039216-2.007843-21.082353-4.015686-30.117647-4.015687M304.188285 133.019608s4.015686 45.176471-34.133333 50.196078-65.254902 31.121569-75.294117 0 46.180392-57.223529 46.180392-57.223529 34.133333 24.094118 65.254902 0l-2.007844 7.027451zM211.827501 195.262745c-5.019608 0-10.039216-1.003922-14.054902-13.05098-8.031373-25.098039 34.133333-48.188235 42.164706-52.203922 5.019608 3.011765 18.070588 10.039216 35.137255 10.039216 9.035294 0 18.070588-2.007843 26.101961-7.027451 0 0 1.003922 11.043137-3.011765 22.086274-5.019608 14.054902-14.054902 23.090196-29.113725 25.09804-13.05098 2.007843-24.094118 6.023529-34.133334 9.035294-9.035294 3.011765-17.066667 6.023529-23.090196 6.023529z m98.384314-76.298039l-6.02353 5.019608c-9.035294 7.027451-18.070588 10.039216-29.113725 10.039215-18.070588 0-32.12549-10.039216-33.129412-10.039215l-1.003921-1.003922-2.007843 1.003922c-2.007843 1.003922-58.227451 28.109804-47.184314 61.239215 4.015686 11.043137 10.039216 17.066667 20.078431 17.066667 7.027451 0 16.062745-3.011765 25.098039-6.023529 10.039216-3.011765 21.082353-7.027451 33.129412-9.035294 38.14902-5.019608 37.145098-48.188235 37.145098-53.207844l3.011765-15.058823zM256.00005 130.007843s-8.031373-3.011765-12.047059-6.023529c0 0-3.011765-26.101961-6.023529-57.22353-2.007843-22.086275 0-37.145098 0-37.145098s1.003922-11.043137 6.023529-14.054902c5.019608-3.011765 19.07451-10.039216 19.07451-10.039215s24.094118-13.05098 63.247059 0c0 0 10.039216 5.019608 11.043137 21.082353 0 0-3.011765-14.054902-25.098039-17.066667-22.086275-4.015686-52.203922 7.027451-60.235294 14.054902-8.031373 8.031373-2.007843 74.290196 0 87.341176 1.003922 14.054902 4.015686 19.07451 4.015686 19.07451M293.145148 167.152941s9.035294-11.043137 8.031373-34.133333c0 0-10.039216 6.023529-22.086275 7.027451-12.047059 1.003922-21.082353-2.007843-21.082353-2.007843s-12.047059-4.015686-17.066666-8.031373c0 0-20.078431 10.039216-34.133334 25.098039s-8.031373 27.105882-8.031372 27.105883 2.007843 8.031373 7.027451 11.043137c0 0-7.027451-15.058824 2.007843-27.105882 9.035294-13.05098 32.12549-25.098039 32.12549-25.09804s40.156863 13.05098 54.211765 2.007844c0 1.003922 3.011765 8.031373-1.003922 24.094117"  horiz-adv-x="1024" />

    
    <glyph glyph-name="yigouxuanx" unicode="&#58928;" d="M1024 377.6C1024 665.6 793.6 896 505.6 896 230.4 896 0 665.6 0 377.6 0 102.4 230.4-128 505.6-128c288 0 518.4 230.4 518.4 505.6zM259.2 355.2c-12.8 12.8-12.8 35.2-3.2 48l-9.6-12.8c9.6 12.8 32 16 44.8 6.4l96-73.6c12.8-9.6 35.2-9.6 51.2 0l294.4 246.4c12.8 12.8 35.2 9.6 48-3.2l-16 16c12.8-12.8 12.8-32 0-44.8l-329.6-320c-12.8-12.8-32-12.8-44.8 0l-131.2 137.6z"  horiz-adv-x="1024" />

    


  </font>
</defs>
</svg>
